<svg width="512" height="512" viewBox="0 0 512 512" xmlns="http://www.w3.org/2000/svg">
  <!-- Background -->
  <rect width="512" height="512" rx="100" fill="#0F172A"/>

  <!-- বাংলা text -->
  <text x="256" y="170"
        text-anchor="middle"
        font-family="Noto Sans Bengali, Kalpurush, sans-serif"
        font-size="96"
        fill="#38BDF8"
        font-weight="700">
        বাংলা
  </text>

  <!-- Keyboard base -->
  <rect x="96" y="240" width="320" height="160" rx="24" fill="#1E293B"/>

  <!-- Keyboard keys -->
  <g fill="#E2E8F0">
    <!-- Row 1 -->
    <rect x="120" y="260" width="40" height="28" rx="6"/>
    <rect x="168" y="260" width="40" height="28" rx="6"/>
    <rect x="216" y="260" width="40" height="28" rx="6"/>
    <rect x="264" y="260" width="40" height="28" rx="6"/>
    <rect x="312" y="260" width="40" height="28" rx="6"/>
    <rect x="360" y="260" width="32" height="28" rx="6"/>

    <!-- Row 2 -->
    <rect x="132" y="300" width="40" height="28" rx="6"/>
    <rect x="180" y="300" width="40" height="28" rx="6"/>
    <rect x="228" y="300" width="40" height="28" rx="6"/>
    <rect x="276" y="300" width="40" height="28" rx="6"/>
    <rect x="324" y="300" width="40" height="28" rx="6"/>

    <!-- Space bar -->
    <rect x="176" y="340" width="160" height="28" rx="8"/>
  </g>
</svg>